<svg id="visual" viewBox="0 0 1920 1080" width="1920" height="1080" xmlns="http://www.w3.org/2000/svg" xmlns:xlink="http://www.w3.org/1999/xlink" version="1.1"><rect x="0" y="0" width="1920" height="1080" fill="#001220"></rect><defs><linearGradient id="grad1_0" x1="43.8%" y1="0%" x2="100%" y2="100%"><stop offset="14.444444444444446%" stop-color="#fbae3c" stop-opacity="1"></stop><stop offset="85.55555555555554%" stop-color="#fbae3c" stop-opacity="1"></stop></linearGradient></defs><defs><linearGradient id="grad1_1" x1="43.8%" y1="0%" x2="100%" y2="100%"><stop offset="14.444444444444446%" stop-color="#fbae3c" stop-opacity="1"></stop><stop offset="85.55555555555554%" stop-color="#f48350" stop-opacity="1"></stop></linearGradient></defs><defs><linearGradient id="grad1_2" x1="43.8%" y1="0%" x2="100%" y2="100%"><stop offset="14.444444444444446%" stop-color="#d96162" stop-opacity="1"></stop><stop offset="85.55555555555554%" stop-color="#f48350" stop-opacity="1"></stop></linearGradient></defs><defs><linearGradient id="grad1_3" x1="43.8%" y1="0%" x2="100%" y2="100%"><stop offset="14.444444444444446%" stop-color="#d96162" stop-opacity="1"></stop><stop offset="85.55555555555554%" stop-color="#af4b6d" stop-opacity="1"></stop></linearGradient></defs><defs><linearGradient id="grad1_4" x1="43.8%" y1="0%" x2="100%" y2="100%"><stop offset="14.444444444444446%" stop-color="#7c3e6b" stop-opacity="1"></stop><stop offset="85.55555555555554%" stop-color="#af4b6d" stop-opacity="1"></stop></linearGradient></defs><defs><linearGradient id="grad1_5" x1="43.8%" y1="0%" x2="100%" y2="100%"><stop offset="14.444444444444446%" stop-color="#7c3e6b" stop-opacity="1"></stop><stop offset="85.55555555555554%" stop-color="#49335c" stop-opacity="1"></stop></linearGradient></defs><defs><linearGradient id="grad1_6" x1="43.8%" y1="0%" x2="100%" y2="100%"><stop offset="14.444444444444446%" stop-color="#1d2540" stop-opacity="1"></stop><stop offset="85.55555555555554%" stop-color="#49335c" stop-opacity="1"></stop></linearGradient></defs><defs><linearGradient id="grad1_7" x1="43.8%" y1="0%" x2="100%" y2="100%"><stop offset="14.444444444444446%" stop-color="#1d2540" stop-opacity="1"></stop><stop offset="85.55555555555554%" stop-color="#001220" stop-opacity="1"></stop></linearGradient></defs><defs><linearGradient id="grad2_0" x1="0%" y1="0%" x2="56.3%" y2="100%"><stop offset="14.444444444444446%" stop-color="#fbae3c" stop-opacity="1"></stop><stop offset="85.55555555555554%" stop-color="#fbae3c" stop-opacity="1"></stop></linearGradient></defs><defs><linearGradient id="grad2_1" x1="0%" y1="0%" x2="56.3%" y2="100%"><stop offset="14.444444444444446%" stop-color="#f48350" stop-opacity="1"></stop><stop offset="85.55555555555554%" stop-color="#fbae3c" stop-opacity="1"></stop></linearGradient></defs><defs><linearGradient id="grad2_2" x1="0%" y1="0%" x2="56.3%" y2="100%"><stop offset="14.444444444444446%" stop-color="#f48350" stop-opacity="1"></stop><stop offset="85.55555555555554%" stop-color="#d96162" stop-opacity="1"></stop></linearGradient></defs><defs><linearGradient id="grad2_3" x1="0%" y1="0%" x2="56.3%" y2="100%"><stop offset="14.444444444444446%" stop-color="#af4b6d" stop-opacity="1"></stop><stop offset="85.55555555555554%" stop-color="#d96162" stop-opacity="1"></stop></linearGradient></defs><defs><linearGradient id="grad2_4" x1="0%" y1="0%" x2="56.3%" y2="100%"><stop offset="14.444444444444446%" stop-color="#af4b6d" stop-opacity="1"></stop><stop offset="85.55555555555554%" stop-color="#7c3e6b" stop-opacity="1"></stop></linearGradient></defs><defs><linearGradient id="grad2_5" x1="0%" y1="0%" x2="56.3%" y2="100%"><stop offset="14.444444444444446%" stop-color="#49335c" stop-opacity="1"></stop><stop offset="85.55555555555554%" stop-color="#7c3e6b" stop-opacity="1"></stop></linearGradient></defs><defs><linearGradient id="grad2_6" x1="0%" y1="0%" x2="56.3%" y2="100%"><stop offset="14.444444444444446%" stop-color="#49335c" stop-opacity="1"></stop><stop offset="85.55555555555554%" stop-color="#1d2540" stop-opacity="1"></stop></linearGradient></defs><defs><linearGradient id="grad2_7" x1="0%" y1="0%" x2="56.3%" y2="100%"><stop offset="14.444444444444446%" stop-color="#001220" stop-opacity="1"></stop><stop offset="85.55555555555554%" stop-color="#1d2540" stop-opacity="1"></stop></linearGradient></defs><g transform="translate(1920, 0)"><path d="M0 756C-102.8 737.3 -205.6 718.7 -274.8 663.3C-344 608 -379.5 516 -454 454C-528.4 392 -641.6 360 -698.5 289.3C-755.3 218.7 -755.6 109.3 -756 0L0 0Z" fill="#0c1c30"></path><path d="M0 661.5C-89.9 645.2 -179.9 628.9 -240.4 580.4C-301 532 -332.1 451.5 -397.2 397.2C-462.3 343 -561.4 315 -611.1 253.1C-660.9 191.3 -661.2 95.7 -661.5 0L0 0Z" fill="#312c4f"></path><path d="M0 567C-77.1 553 -154.2 539 -206.1 497.5C-258 456 -284.7 387 -340.5 340.5C-396.3 294 -481.2 270 -523.8 217C-566.4 164 -566.7 82 -567 0L0 0Z" fill="#623965"></path><path d="M0 472.5C-64.2 460.8 -128.5 449.2 -171.7 414.6C-215 380 -237.2 322.5 -283.7 283.7C-330.2 245 -401 225 -436.5 180.8C-472 136.7 -472.3 68.3 -472.5 0L0 0Z" fill="#96446e"></path><path d="M0 378C-51.4 368.7 -102.8 359.3 -137.4 331.7C-172 304 -189.8 258 -227 227C-264.2 196 -320.8 180 -349.2 144.7C-377.6 109.3 -377.8 54.7 -378 0L0 0Z" fill="#c55469"></path><path d="M0 283.5C-38.5 276.5 -77.1 269.5 -103 248.8C-129 228 -142.3 193.5 -170.2 170.2C-198.1 147 -240.6 135 -261.9 108.5C-283.2 82 -283.4 41 -283.5 0L0 0Z" fill="#e9705a"></path><path d="M0 189C-25.7 184.3 -51.4 179.7 -68.7 165.8C-86 152 -94.9 129 -113.5 113.5C-132.1 98 -160.4 90 -174.6 72.3C-188.8 54.7 -188.9 27.3 -189 0L0 0Z" fill="#fa9845"></path><path d="M0 94.5C-12.8 92.2 -25.7 89.8 -34.3 82.9C-43 76 -47.4 64.5 -56.7 56.7C-66 49 -80.2 45 -87.3 36.2C-94.4 27.3 -94.5 13.7 -94.5 0L0 0Z" fill="#fbae3c"></path></g><g transform="translate(0, 1080)"><path d="M0 -756C87.3 -718.4 174.6 -680.9 269.4 -650.4C364.3 -620 466.7 -596.6 534.6 -534.6C602.5 -472.5 635.9 -371.8 667 -276.3C698.2 -180.8 727.1 -90.4 756 0L0 0Z" fill="#0c1c30"></path><path d="M0 -661.5C76.4 -628.6 152.7 -595.8 235.7 -569.1C318.7 -542.5 408.3 -522 467.8 -467.8C527.2 -413.5 556.4 -325.4 583.7 -241.8C610.9 -158.2 636.2 -79.1 661.5 0L0 0Z" fill="#312c4f"></path><path d="M0 -567C65.5 -538.8 130.9 -510.7 202.1 -487.8C273.2 -465 350 -447.5 400.9 -400.9C451.9 -354.4 476.9 -278.9 500.3 -207.2C523.6 -135.6 545.3 -67.8 567 0L0 0Z" fill="#623965"></path><path d="M0 -472.5C54.6 -449 109.1 -425.5 168.4 -406.5C227.7 -387.5 291.7 -372.9 334.1 -334.1C376.6 -295.3 397.4 -232.4 416.9 -172.7C436.4 -113 454.4 -56.5 472.5 0L0 0Z" fill="#96446e"></path><path d="M0 -378C43.6 -359.2 87.3 -340.4 134.7 -325.2C182.1 -310 233.3 -298.3 267.3 -267.3C301.2 -236.3 317.9 -185.9 333.5 -138.1C349.1 -90.4 363.5 -45.2 378 0L0 0Z" fill="#c55469"></path><path d="M0 -283.5C32.7 -269.4 65.5 -255.3 101 -243.9C136.6 -232.5 175 -223.7 200.5 -200.5C225.9 -177.2 238.5 -139.4 250.1 -103.6C261.8 -67.8 272.7 -33.9 283.5 0L0 0Z" fill="#e9705a"></path><path d="M0 -189C21.8 -179.6 43.6 -170.2 67.4 -162.6C91.1 -155 116.7 -149.2 133.6 -133.6C150.6 -118.1 159 -93 166.8 -69.1C174.5 -45.2 181.8 -22.6 189 0L0 0Z" fill="#fa9845"></path><path d="M0 -94.5C10.9 -89.8 21.8 -85.1 33.7 -81.3C45.5 -77.5 58.3 -74.6 66.8 -66.8C75.3 -59.1 79.5 -46.5 83.4 -34.5C87.3 -22.6 90.9 -11.3 94.5 0L0 0Z" fill="#fbae3c"></path></g></svg>