<svg id="visual" viewBox="0 0 1920 1080" width="1920" height="1080" xmlns="http://www.w3.org/2000/svg" xmlns:xlink="http://www.w3.org/1999/xlink" version="1.1"><path d="M0 217L29.2 253C58.3 289 116.7 361 174.8 352C233 343 291 253 349.2 242.2C407.3 231.3 465.7 299.7 523.8 299.7C582 299.7 640 231.3 698.2 197.2C756.3 163 814.7 163 872.8 197.2C931 231.3 989 299.7 1047.2 314C1105.3 328.3 1163.7 288.7 1221.8 277.8C1280 267 1338 285 1396.2 308.5C1454.3 332 1512.7 361 1570.8 375.5C1629 390 1687 390 1745.2 393.5C1803.3 397 1861.7 404 1890.8 407.5L1920 411L1920 0L1890.8 0C1861.7 0 1803.3 0 1745.2 0C1687 0 1629 0 1570.8 0C1512.7 0 1454.3 0 1396.2 0C1338 0 1280 0 1221.8 0C1163.7 0 1105.3 0 1047.2 0C989 0 931 0 872.8 0C814.7 0 756.3 0 698.2 0C640 0 582 0 523.8 0C465.7 0 407.3 0 349.2 0C291 0 233 0 174.8 0C116.7 0 58.3 0 29.2 0L0 0Z" fill="#6198ff"></path><path d="M0 422L29.2 461.7C58.3 501.3 116.7 580.7 174.8 573.5C233 566.3 291 472.7 349.2 460C407.3 447.3 465.7 515.7 523.8 503C582 490.3 640 396.7 698.2 375.2C756.3 353.7 814.7 404.3 872.8 451.2C931 498 989 541 1047.2 548.2C1105.3 555.3 1163.7 526.7 1221.8 508.7C1280 490.7 1338 483.3 1396.2 512.2C1454.3 541 1512.7 606 1570.8 607.8C1629 609.7 1687 548.3 1745.2 526.7C1803.3 505 1861.7 523 1890.8 532L1920 541L1920 409L1890.8 405.5C1861.7 402 1803.3 395 1745.2 391.5C1687 388 1629 388 1570.8 373.5C1512.7 359 1454.3 330 1396.2 306.5C1338 283 1280 265 1221.8 275.8C1163.7 286.7 1105.3 326.3 1047.2 312C989 297.7 931 229.3 872.8 195.2C814.7 161 756.3 161 698.2 195.2C640 229.3 582 297.7 523.8 297.7C465.7 297.7 407.3 229.3 349.2 240.2C291 251 233 341 174.8 350C116.7 359 58.3 287 29.2 251L0 215Z" fill="#3c80ff"></path><path d="M0 757L29.2 773.2C58.3 789.3 116.7 821.7 174.8 827C233 832.3 291 810.7 349.2 796.3C407.3 782 465.7 775 523.8 767.8C582 760.7 640 753.3 698.2 769.5C756.3 785.7 814.7 825.3 872.8 854.2C931 883 989 901 1047.2 892C1105.3 883 1163.7 847 1221.8 836.2C1280 825.3 1338 839.7 1396.2 843.3C1454.3 847 1512.7 840 1570.8 825.7C1629 811.3 1687 789.7 1745.2 786C1803.3 782.3 1861.7 796.7 1890.8 803.8L1920 811L1920 539L1890.8 530C1861.7 521 1803.3 503 1745.2 524.7C1687 546.3 1629 607.7 1570.8 605.8C1512.7 604 1454.3 539 1396.2 510.2C1338 481.3 1280 488.7 1221.8 506.7C1163.7 524.7 1105.3 553.3 1047.2 546.2C989 539 931 496 872.8 449.2C814.7 402.3 756.3 351.7 698.2 373.2C640 394.7 582 488.3 523.8 501C465.7 513.7 407.3 445.3 349.2 458C291 470.7 233 564.3 174.8 571.5C116.7 578.7 58.3 499.3 29.2 459.7L0 420Z" fill="#0066ff"></path><path d="M0 897L29.2 904.3C58.3 911.7 116.7 926.3 174.8 946.2C233 966 291 991 349.2 1001.7C407.3 1012.3 465.7 1008.7 523.8 994.3C582 980 640 955 698.2 953.3C756.3 951.7 814.7 973.3 872.8 984.2C931 995 989 995 1047.2 993.2C1105.3 991.3 1163.7 987.7 1221.8 978.7C1280 969.7 1338 955.3 1396.2 940.8C1454.3 926.3 1512.7 911.7 1570.8 917C1629 922.3 1687 947.7 1745.2 951.3C1803.3 955 1861.7 937 1890.8 928L1920 919L1920 809L1890.8 801.8C1861.7 794.7 1803.3 780.3 1745.2 784C1687 787.7 1629 809.3 1570.8 823.7C1512.7 838 1454.3 845 1396.2 841.3C1338 837.7 1280 823.3 1221.8 834.2C1163.7 845 1105.3 881 1047.2 890C989 899 931 881 872.8 852.2C814.7 823.3 756.3 783.7 698.2 767.5C640 751.3 582 758.7 523.8 765.8C465.7 773 407.3 780 349.2 794.3C291 808.7 233 830.3 174.8 825C116.7 819.7 58.3 787.3 29.2 771.2L0 755Z" fill="#0059dd"></path><path d="M0 1081L29.2 1081C58.3 1081 116.7 1081 174.8 1081C233 1081 291 1081 349.2 1081C407.3 1081 465.7 1081 523.8 1081C582 1081 640 1081 698.2 1081C756.3 1081 814.7 1081 872.8 1081C931 1081 989 1081 1047.2 1081C1105.3 1081 1163.7 1081 1221.8 1081C1280 1081 1338 1081 1396.2 1081C1454.3 1081 1512.7 1081 1570.8 1081C1629 1081 1687 1081 1745.2 1081C1803.3 1081 1861.7 1081 1890.8 1081L1920 1081L1920 917L1890.8 926C1861.7 935 1803.3 953 1745.2 949.3C1687 945.7 1629 920.3 1570.8 915C1512.7 909.7 1454.3 924.3 1396.2 938.8C1338 953.3 1280 967.7 1221.8 976.7C1163.7 985.7 1105.3 989.3 1047.2 991.2C989 993 931 993 872.8 982.2C814.7 971.3 756.3 949.7 698.2 951.3C640 953 582 978 523.8 992.3C465.7 1006.7 407.3 1010.3 349.2 999.7C291 989 233 964 174.8 944.2C116.7 924.3 58.3 909.7 29.2 902.3L0 895Z" fill="#004cbb"></path></svg>