<svg id="visual" viewBox="0 0 1920 1080" width="1920" height="1080" xmlns="http://www.w3.org/2000/svg" xmlns:xlink="http://www.w3.org/1999/xlink" version="1.1"><path d="M0 185L175 77L349 98L524 228L698 228L873 206L1047 109L1222 141L1396 228L1571 141L1745 185L1920 217L1920 0L1745 0L1571 0L1396 0L1222 0L1047 0L873 0L698 0L524 0L349 0L175 0L0 0Z" fill="#00cc8e"></path><path d="M0 336L175 174L349 239L524 347L698 347L873 347L1047 249L1222 271L1396 303L1571 303L1745 282L1920 368L1920 215L1745 183L1571 139L1396 226L1222 139L1047 107L873 204L698 226L524 226L349 96L175 75L0 183Z" fill="#00b98a"></path><path d="M0 627L175 401L349 519L524 703L698 519L873 584L1047 638L1222 595L1396 498L1571 617L1745 595L1920 541L1920 366L1745 280L1571 301L1396 301L1222 269L1047 247L873 345L698 345L524 345L349 237L175 172L0 334Z" fill="#00a784"></path><path d="M0 908L175 887L349 854L524 865L698 843L873 865L1047 800L1222 897L1396 919L1571 800L1745 811L1920 833L1920 539L1745 593L1571 615L1396 496L1222 593L1047 636L873 582L698 517L524 701L349 517L175 399L0 625Z" fill="#00957c"></path><path d="M0 1081L175 1081L349 1081L524 1081L698 1081L873 1081L1047 1081L1222 1081L1396 1081L1571 1081L1745 1081L1920 1081L1920 831L1745 809L1571 798L1396 917L1222 895L1047 798L873 863L698 841L524 863L349 852L175 885L0 906Z" fill="#038373"></path></svg>