<svg id="visual" viewBox="0 0 1920 1080" width="1920" height="1080" xmlns="http://www.w3.org/2000/svg" xmlns:xlink="http://www.w3.org/1999/xlink" version="1.1"><path d="M0 206L13.8 206C27.7 206 55.3 206 83.2 206C111 206 139 206 166.8 206C194.7 206 222.3 206 250.2 206C278 206 306 206 333.8 211.5C361.7 217 389.3 228 417.2 229.8C445 231.7 473 224.3 500.8 218.8C528.7 213.3 556.3 209.7 584.2 209.7C612 209.7 640 213.3 667.8 215.2C695.7 217 723.3 217 751.2 215.2C779 213.3 807 209.7 834.8 211.5C862.7 213.3 890.3 220.7 918.2 222.5C946 224.3 974 220.7 1001.8 217C1029.7 213.3 1057.3 209.7 1085.2 211.5C1113 213.3 1141 220.7 1168.8 222.5C1196.7 224.3 1224.3 220.7 1252.2 220.7C1280 220.7 1308 224.3 1335.8 222.5C1363.7 220.7 1391.3 213.3 1419.2 215.2C1447 217 1475 228 1502.8 228C1530.7 228 1558.3 217 1586.2 215.2C1614 213.3 1642 220.7 1669.8 222.5C1697.7 224.3 1725.3 220.7 1753.2 217C1781 213.3 1809 209.7 1836.8 211.5C1864.7 213.3 1892.3 220.7 1906.2 224.3L1920 228L1920 0L1906.2 0C1892.3 0 1864.7 0 1836.8 0C1809 0 1781 0 1753.2 0C1725.3 0 1697.7 0 1669.8 0C1642 0 1614 0 1586.2 0C1558.3 0 1530.7 0 1502.8 0C1475 0 1447 0 1419.2 0C1391.3 0 1363.7 0 1335.8 0C1308 0 1280 0 1252.2 0C1224.3 0 1196.7 0 1168.8 0C1141 0 1113 0 1085.2 0C1057.3 0 1029.7 0 1001.8 0C974 0 946 0 918.2 0C890.3 0 862.7 0 834.8 0C807 0 779 0 751.2 0C723.3 0 695.7 0 667.8 0C640 0 612 0 584.2 0C556.3 0 528.7 0 500.8 0C473 0 445 0 417.2 0C389.3 0 361.7 0 333.8 0C306 0 278 0 250.2 0C222.3 0 194.7 0 166.8 0C139 0 111 0 83.2 0C55.3 0 27.7 0 13.8 0L0 0Z" fill="#6198ff"></path><path d="M0 433L13.8 433C27.7 433 55.3 433 83.2 431.2C111 429.3 139 425.7 166.8 425.7C194.7 425.7 222.3 429.3 250.2 429.3C278 429.3 306 425.7 333.8 425.7C361.7 425.7 389.3 429.3 417.2 427.5C445 425.7 473 418.3 500.8 414.7C528.7 411 556.3 411 584.2 414.7C612 418.3 640 425.7 667.8 425.7C695.7 425.7 723.3 418.3 751.2 414.7C779 411 807 411 834.8 411C862.7 411 890.3 411 918.2 411C946 411 974 411 1001.8 411C1029.7 411 1057.3 411 1085.2 411C1113 411 1141 411 1168.8 414.7C1196.7 418.3 1224.3 425.7 1252.2 425.7C1280 425.7 1308 418.3 1335.8 414.7C1363.7 411 1391.3 411 1419.2 416.5C1447 422 1475 433 1502.8 433C1530.7 433 1558.3 422 1586.2 420.2C1614 418.3 1642 425.7 1669.8 425.7C1697.7 425.7 1725.3 418.3 1753.2 414.7C1781 411 1809 411 1836.8 412.8C1864.7 414.7 1892.3 418.3 1906.2 420.2L1920 422L1920 226L1906.2 222.3C1892.3 218.7 1864.7 211.3 1836.8 209.5C1809 207.7 1781 211.3 1753.2 215C1725.3 218.7 1697.7 222.3 1669.8 220.5C1642 218.7 1614 211.3 1586.2 213.2C1558.3 215 1530.7 226 1502.8 226C1475 226 1447 215 1419.2 213.2C1391.3 211.3 1363.7 218.7 1335.8 220.5C1308 222.3 1280 218.7 1252.2 218.7C1224.3 218.7 1196.7 222.3 1168.8 220.5C1141 218.7 1113 211.3 1085.2 209.5C1057.3 207.7 1029.7 211.3 1001.8 215C974 218.7 946 222.3 918.2 220.5C890.3 218.7 862.7 211.3 834.8 209.5C807 207.7 779 211.3 751.2 213.2C723.3 215 695.7 215 667.8 213.2C640 211.3 612 207.7 584.2 207.7C556.3 207.7 528.7 211.3 500.8 216.8C473 222.3 445 229.7 417.2 227.8C389.3 226 361.7 215 333.8 209.5C306 204 278 204 250.2 204C222.3 204 194.7 204 166.8 204C139 204 111 204 83.2 204C55.3 204 27.7 204 13.8 204L0 204Z" fill="#3f82ff"></path><path d="M0 509L13.8 509C27.7 509 55.3 509 83.2 507.2C111 505.3 139 501.7 166.8 503.3C194.7 505 222.3 512 250.2 512C278 512 306 505 333.8 503.3C361.7 501.7 389.3 505.3 417.2 503.5C445 501.7 473 494.3 500.8 492.5C528.7 490.7 556.3 494.3 584.2 498C612 501.7 640 505.3 667.8 505.3C695.7 505.3 723.3 501.7 751.2 498C779 494.3 807 490.7 834.8 490.7C862.7 490.7 890.3 494.3 918.2 494.3C946 494.3 974 490.7 1001.8 490.7C1029.7 490.7 1057.3 494.3 1085.2 496.2C1113 498 1141 498 1168.8 499.8C1196.7 501.7 1224.3 505.3 1252.2 503.5C1280 501.7 1308 494.3 1335.8 490.7C1363.7 487 1391.3 487 1419.2 492.3C1447 497.7 1475 508.3 1502.8 510.2C1530.7 512 1558.3 505 1586.2 503.3C1614 501.7 1642 505.3 1669.8 505.3C1697.7 505.3 1725.3 501.7 1753.2 499.8C1781 498 1809 498 1836.8 499.8C1864.7 501.7 1892.3 505.3 1906.2 507.2L1920 509L1920 420L1906.2 418.2C1892.3 416.3 1864.7 412.7 1836.8 410.8C1809 409 1781 409 1753.2 412.7C1725.3 416.3 1697.7 423.7 1669.8 423.7C1642 423.7 1614 416.3 1586.2 418.2C1558.3 420 1530.7 431 1502.8 431C1475 431 1447 420 1419.2 414.5C1391.3 409 1363.7 409 1335.8 412.7C1308 416.3 1280 423.7 1252.2 423.7C1224.3 423.7 1196.7 416.3 1168.8 412.7C1141 409 1113 409 1085.2 409C1057.3 409 1029.7 409 1001.8 409C974 409 946 409 918.2 409C890.3 409 862.7 409 834.8 409C807 409 779 409 751.2 412.7C723.3 416.3 695.7 423.7 667.8 423.7C640 423.7 612 416.3 584.2 412.7C556.3 409 528.7 409 500.8 412.7C473 416.3 445 423.7 417.2 425.5C389.3 427.3 361.7 423.7 333.8 423.7C306 423.7 278 427.3 250.2 427.3C222.3 427.3 194.7 423.7 166.8 423.7C139 423.7 111 427.3 83.2 429.2C55.3 431 27.7 431 13.8 431L0 431Z" fill="#126bff"></path><path d="M0 573L13.8 574.8C27.7 576.7 55.3 580.3 83.2 578.7C111 577 139 570 166.8 570C194.7 570 222.3 577 250.2 577C278 577 306 570 333.8 568.2C361.7 566.3 389.3 569.7 417.2 567.8C445 566 473 559 500.8 559C528.7 559 556.3 566 584.2 571.3C612 576.7 640 580.3 667.8 580.3C695.7 580.3 723.3 576.7 751.2 573.2C779 569.7 807 566.3 834.8 564.7C862.7 563 890.3 563 918.2 563C946 563 974 563 1001.8 563C1029.7 563 1057.3 563 1085.2 563C1113 563 1141 563 1168.8 566.5C1196.7 570 1224.3 577 1252.2 575.2C1280 573.3 1308 562.7 1335.8 559.2C1363.7 555.7 1391.3 559.3 1419.2 564.7C1447 570 1475 577 1502.8 578.7C1530.7 580.3 1558.3 576.7 1586.2 576.7C1614 576.7 1642 580.3 1669.8 578.7C1697.7 577 1725.3 570 1753.2 566.5C1781 563 1809 563 1836.8 564.7C1864.7 566.3 1892.3 569.7 1906.2 571.3L1920 573L1920 507L1906.2 505.2C1892.3 503.3 1864.7 499.7 1836.8 497.8C1809 496 1781 496 1753.2 497.8C1725.3 499.7 1697.7 503.3 1669.8 503.3C1642 503.3 1614 499.7 1586.2 501.3C1558.3 503 1530.7 510 1502.8 508.2C1475 506.3 1447 495.7 1419.2 490.3C1391.3 485 1363.7 485 1335.8 488.7C1308 492.3 1280 499.7 1252.2 501.5C1224.3 503.3 1196.7 499.7 1168.8 497.8C1141 496 1113 496 1085.2 494.2C1057.3 492.3 1029.7 488.7 1001.8 488.7C974 488.7 946 492.3 918.2 492.3C890.3 492.3 862.7 488.7 834.8 488.7C807 488.7 779 492.3 751.2 496C723.3 499.7 695.7 503.3 667.8 503.3C640 503.3 612 499.7 584.2 496C556.3 492.3 528.7 488.7 500.8 490.5C473 492.3 445 499.7 417.2 501.5C389.3 503.3 361.7 499.7 333.8 501.3C306 503 278 510 250.2 510C222.3 510 194.7 503 166.8 501.3C139 499.7 111 503.3 83.2 505.2C55.3 507 27.7 507 13.8 507L0 507Z" fill="#005ce6"></path><path d="M0 627L13.8 628.8C27.7 630.7 55.3 634.3 83.2 632.7C111 631 139 624 166.8 624C194.7 624 222.3 631 250.2 631C278 631 306 624 333.8 622.2C361.7 620.3 389.3 623.7 417.2 621.8C445 620 473 613 500.8 613C528.7 613 556.3 620 584.2 625.3C612 630.7 640 634.3 667.8 634.3C695.7 634.3 723.3 630.7 751.2 627.2C779 623.7 807 620.3 834.8 618.7C862.7 617 890.3 617 918.2 617C946 617 974 617 1001.8 617C1029.7 617 1057.3 617 1085.2 617C1113 617 1141 617 1168.8 620.5C1196.7 624 1224.3 631 1252.2 629.2C1280 627.3 1308 616.7 1335.8 613.2C1363.7 609.7 1391.3 613.3 1419.2 618.7C1447 624 1475 631 1502.8 632.7C1530.7 634.3 1558.3 630.7 1586.2 630.7C1614 630.7 1642 634.3 1669.8 632.7C1697.7 631 1725.3 624 1753.2 620.5C1781 617 1809 617 1836.8 618.7C1864.7 620.3 1892.3 623.7 1906.2 625.3L1920 627L1920 571L1906.2 569.3C1892.3 567.7 1864.7 564.3 1836.8 562.7C1809 561 1781 561 1753.2 564.5C1725.3 568 1697.7 575 1669.8 576.7C1642 578.3 1614 574.7 1586.2 574.7C1558.3 574.7 1530.7 578.3 1502.8 576.7C1475 575 1447 568 1419.2 562.7C1391.3 557.3 1363.7 553.7 1335.8 557.2C1308 560.7 1280 571.3 1252.2 573.2C1224.3 575 1196.7 568 1168.8 564.5C1141 561 1113 561 1085.2 561C1057.3 561 1029.7 561 1001.8 561C974 561 946 561 918.2 561C890.3 561 862.7 561 834.8 562.7C807 564.3 779 567.7 751.2 571.2C723.3 574.7 695.7 578.3 667.8 578.3C640 578.3 612 574.7 584.2 569.3C556.3 564 528.7 557 500.8 557C473 557 445 564 417.2 565.8C389.3 567.7 361.7 564.3 333.8 566.2C306 568 278 575 250.2 575C222.3 575 194.7 568 166.8 568C139 568 111 575 83.2 576.7C55.3 578.3 27.7 574.7 13.8 572.8L0 571Z" fill="#0051c7"></path><path d="M0 714L13.8 715.8C27.7 717.7 55.3 721.3 83.2 721.3C111 721.3 139 717.7 166.8 717.7C194.7 717.7 222.3 721.3 250.2 721.3C278 721.3 306 717.7 333.8 715.8C361.7 714 389.3 714 417.2 710.3C445 706.7 473 699.3 500.8 701.2C528.7 703 556.3 714 584.2 719.5C612 725 640 725 667.8 725C695.7 725 723.3 725 751.2 723.2C779 721.3 807 717.7 834.8 715.8C862.7 714 890.3 714 918.2 715.8C946 717.7 974 721.3 1001.8 721.3C1029.7 721.3 1057.3 717.7 1085.2 715.8C1113 714 1141 714 1168.8 715.8C1196.7 717.7 1224.3 721.3 1252.2 719.5C1280 717.7 1308 710.3 1335.8 706.7C1363.7 703 1391.3 703 1419.2 708.3C1447 713.7 1475 724.3 1502.8 726.2C1530.7 728 1558.3 721 1586.2 721C1614 721 1642 728 1669.8 726.2C1697.7 724.3 1725.3 713.7 1753.2 708.3C1781 703 1809 703 1836.8 704.8C1864.7 706.7 1892.3 710.3 1906.2 712.2L1920 714L1920 625L1906.2 623.3C1892.3 621.7 1864.7 618.3 1836.8 616.7C1809 615 1781 615 1753.2 618.5C1725.3 622 1697.7 629 1669.8 630.7C1642 632.3 1614 628.7 1586.2 628.7C1558.3 628.7 1530.7 632.3 1502.8 630.7C1475 629 1447 622 1419.2 616.7C1391.3 611.3 1363.7 607.7 1335.8 611.2C1308 614.7 1280 625.3 1252.2 627.2C1224.3 629 1196.7 622 1168.8 618.5C1141 615 1113 615 1085.2 615C1057.3 615 1029.7 615 1001.8 615C974 615 946 615 918.2 615C890.3 615 862.7 615 834.8 616.7C807 618.3 779 621.7 751.2 625.2C723.3 628.7 695.7 632.3 667.8 632.3C640 632.3 612 628.7 584.2 623.3C556.3 618 528.7 611 500.8 611C473 611 445 618 417.2 619.8C389.3 621.7 361.7 618.3 333.8 620.2C306 622 278 629 250.2 629C222.3 629 194.7 622 166.8 622C139 622 111 629 83.2 630.7C55.3 632.3 27.7 628.7 13.8 626.8L0 625Z" fill="#004cbb"></path><path d="M0 833L13.8 834.7C27.7 836.3 55.3 839.7 83.2 839.7C111 839.7 139 836.3 166.8 836.3C194.7 836.3 222.3 839.7 250.2 841.3C278 843 306 843 333.8 841.3C361.7 839.7 389.3 836.3 417.2 834.7C445 833 473 833 500.8 834.7C528.7 836.3 556.3 839.7 584.2 841.3C612 843 640 843 667.8 843C695.7 843 723.3 843 751.2 843C779 843 807 843 834.8 843C862.7 843 890.3 843 918.2 844.8C946 846.7 974 850.3 1001.8 850.3C1029.7 850.3 1057.3 846.7 1085.2 844.8C1113 843 1141 843 1168.8 843C1196.7 843 1224.3 843 1252.2 843C1280 843 1308 843 1335.8 843C1363.7 843 1391.3 843 1419.2 844.8C1447 846.7 1475 850.3 1502.8 850.3C1530.7 850.3 1558.3 846.7 1586.2 846.7C1614 846.7 1642 850.3 1669.8 850.3C1697.7 850.3 1725.3 846.7 1753.2 843.2C1781 839.7 1809 836.3 1836.8 834.7C1864.7 833 1892.3 833 1906.2 833L1920 833L1920 712L1906.2 710.2C1892.3 708.3 1864.7 704.7 1836.8 702.8C1809 701 1781 701 1753.2 706.3C1725.3 711.7 1697.7 722.3 1669.8 724.2C1642 726 1614 719 1586.2 719C1558.3 719 1530.7 726 1502.8 724.2C1475 722.3 1447 711.7 1419.2 706.3C1391.3 701 1363.7 701 1335.8 704.7C1308 708.3 1280 715.7 1252.2 717.5C1224.3 719.3 1196.7 715.7 1168.8 713.8C1141 712 1113 712 1085.2 713.8C1057.3 715.7 1029.7 719.3 1001.8 719.3C974 719.3 946 715.7 918.2 713.8C890.3 712 862.7 712 834.8 713.8C807 715.7 779 719.3 751.2 721.2C723.3 723 695.7 723 667.8 723C640 723 612 723 584.2 717.5C556.3 712 528.7 701 500.8 699.2C473 697.3 445 704.7 417.2 708.3C389.3 712 361.7 712 333.8 713.8C306 715.7 278 719.3 250.2 719.3C222.3 719.3 194.7 715.7 166.8 715.7C139 715.7 111 719.3 83.2 719.3C55.3 719.3 27.7 715.7 13.8 713.8L0 712Z" fill="#004cbb"></path><path d="M0 897L13.8 897C27.7 897 55.3 897 83.2 897C111 897 139 897 166.8 897C194.7 897 222.3 897 250.2 897C278 897 306 897 333.8 897C361.7 897 389.3 897 417.2 897C445 897 473 897 500.8 898.8C528.7 900.7 556.3 904.3 584.2 904.3C612 904.3 640 900.7 667.8 898.8C695.7 897 723.3 897 751.2 897C779 897 807 897 834.8 898.8C862.7 900.7 890.3 904.3 918.2 906.2C946 908 974 908 1001.8 906.2C1029.7 904.3 1057.3 900.7 1085.2 900.7C1113 900.7 1141 904.3 1168.8 904.3C1196.7 904.3 1224.3 900.7 1252.2 900.7C1280 900.7 1308 904.3 1335.8 904.3C1363.7 904.3 1391.3 900.7 1419.2 900.7C1447 900.7 1475 904.3 1502.8 904.3C1530.7 904.3 1558.3 900.7 1586.2 900.7C1614 900.7 1642 904.3 1669.8 906.2C1697.7 908 1725.3 908 1753.2 906.2C1781 904.3 1809 900.7 1836.8 898.8C1864.7 897 1892.3 897 1906.2 897L1920 897L1920 831L1906.2 831C1892.3 831 1864.7 831 1836.8 832.7C1809 834.3 1781 837.7 1753.2 841.2C1725.3 844.7 1697.7 848.3 1669.8 848.3C1642 848.3 1614 844.7 1586.2 844.7C1558.3 844.7 1530.7 848.3 1502.8 848.3C1475 848.3 1447 844.7 1419.2 842.8C1391.3 841 1363.7 841 1335.8 841C1308 841 1280 841 1252.2 841C1224.3 841 1196.7 841 1168.8 841C1141 841 1113 841 1085.2 842.8C1057.3 844.7 1029.7 848.3 1001.8 848.3C974 848.3 946 844.7 918.2 842.8C890.3 841 862.7 841 834.8 841C807 841 779 841 751.2 841C723.3 841 695.7 841 667.8 841C640 841 612 841 584.2 839.3C556.3 837.7 528.7 834.3 500.8 832.7C473 831 445 831 417.2 832.7C389.3 834.3 361.7 837.7 333.8 839.3C306 841 278 841 250.2 839.3C222.3 837.7 194.7 834.3 166.8 834.3C139 834.3 111 837.7 83.2 837.7C55.3 837.7 27.7 834.3 13.8 832.7L0 831Z" fill="#0051c7"></path><path d="M0 941L13.8 941C27.7 941 55.3 941 83.2 941C111 941 139 941 166.8 941C194.7 941 222.3 941 250.2 941C278 941 306 941 333.8 941C361.7 941 389.3 941 417.2 941C445 941 473 941 500.8 942.7C528.7 944.3 556.3 947.7 584.2 947.7C612 947.7 640 944.3 667.8 942.7C695.7 941 723.3 941 751.2 941C779 941 807 941 834.8 942.7C862.7 944.3 890.3 947.7 918.2 949.3C946 951 974 951 1001.8 949.3C1029.7 947.7 1057.3 944.3 1085.2 944.3C1113 944.3 1141 947.7 1168.8 947.7C1196.7 947.7 1224.3 944.3 1252.2 944.3C1280 944.3 1308 947.7 1335.8 947.7C1363.7 947.7 1391.3 944.3 1419.2 944.3C1447 944.3 1475 947.7 1502.8 947.7C1530.7 947.7 1558.3 944.3 1586.2 944.3C1614 944.3 1642 947.7 1669.8 949.3C1697.7 951 1725.3 951 1753.2 949.3C1781 947.7 1809 944.3 1836.8 942.7C1864.7 941 1892.3 941 1906.2 941L1920 941L1920 895L1906.2 895C1892.3 895 1864.7 895 1836.8 896.8C1809 898.7 1781 902.3 1753.2 904.2C1725.3 906 1697.7 906 1669.8 904.2C1642 902.3 1614 898.7 1586.2 898.7C1558.3 898.7 1530.7 902.3 1502.8 902.3C1475 902.3 1447 898.7 1419.2 898.7C1391.3 898.7 1363.7 902.3 1335.8 902.3C1308 902.3 1280 898.7 1252.2 898.7C1224.3 898.7 1196.7 902.3 1168.8 902.3C1141 902.3 1113 898.7 1085.2 898.7C1057.3 898.7 1029.7 902.3 1001.8 904.2C974 906 946 906 918.2 904.2C890.3 902.3 862.7 898.7 834.8 896.8C807 895 779 895 751.2 895C723.3 895 695.7 895 667.8 896.8C640 898.7 612 902.3 584.2 902.3C556.3 902.3 528.7 898.7 500.8 896.8C473 895 445 895 417.2 895C389.3 895 361.7 895 333.8 895C306 895 278 895 250.2 895C222.3 895 194.7 895 166.8 895C139 895 111 895 83.2 895C55.3 895 27.7 895 13.8 895L0 895Z" fill="#005ce6"></path><path d="M0 995L13.8 995C27.7 995 55.3 995 83.2 995C111 995 139 995 166.8 995C194.7 995 222.3 995 250.2 995C278 995 306 995 333.8 995C361.7 995 389.3 995 417.2 995C445 995 473 995 500.8 995C528.7 995 556.3 995 584.2 995C612 995 640 995 667.8 995C695.7 995 723.3 995 751.2 995C779 995 807 995 834.8 995C862.7 995 890.3 995 918.2 995C946 995 974 995 1001.8 995C1029.7 995 1057.3 995 1085.2 995C1113 995 1141 995 1168.8 995C1196.7 995 1224.3 995 1252.2 995C1280 995 1308 995 1335.8 995C1363.7 995 1391.3 995 1419.2 995C1447 995 1475 995 1502.8 995C1530.7 995 1558.3 995 1586.2 995C1614 995 1642 995 1669.8 995C1697.7 995 1725.3 995 1753.2 995C1781 995 1809 995 1836.8 995C1864.7 995 1892.3 995 1906.2 995L1920 995L1920 939L1906.2 939C1892.3 939 1864.7 939 1836.8 940.7C1809 942.3 1781 945.7 1753.2 947.3C1725.3 949 1697.7 949 1669.8 947.3C1642 945.7 1614 942.3 1586.2 942.3C1558.3 942.3 1530.7 945.7 1502.8 945.7C1475 945.7 1447 942.3 1419.2 942.3C1391.3 942.3 1363.7 945.7 1335.8 945.7C1308 945.7 1280 942.3 1252.2 942.3C1224.3 942.3 1196.7 945.7 1168.8 945.7C1141 945.7 1113 942.3 1085.2 942.3C1057.3 942.3 1029.7 945.7 1001.8 947.3C974 949 946 949 918.2 947.3C890.3 945.7 862.7 942.3 834.8 940.7C807 939 779 939 751.2 939C723.3 939 695.7 939 667.8 940.7C640 942.3 612 945.7 584.2 945.7C556.3 945.7 528.7 942.3 500.8 940.7C473 939 445 939 417.2 939C389.3 939 361.7 939 333.8 939C306 939 278 939 250.2 939C222.3 939 194.7 939 166.8 939C139 939 111 939 83.2 939C55.3 939 27.7 939 13.8 939L0 939Z" fill="#126bff"></path><path d="M0 1038L13.8 1038C27.7 1038 55.3 1038 83.2 1038C111 1038 139 1038 166.8 1038C194.7 1038 222.3 1038 250.2 1038C278 1038 306 1038 333.8 1038C361.7 1038 389.3 1038 417.2 1038C445 1038 473 1038 500.8 1038C528.7 1038 556.3 1038 584.2 1038C612 1038 640 1038 667.8 1038C695.7 1038 723.3 1038 751.2 1038C779 1038 807 1038 834.8 1038C862.7 1038 890.3 1038 918.2 1038C946 1038 974 1038 1001.8 1038C1029.7 1038 1057.3 1038 1085.2 1038C1113 1038 1141 1038 1168.8 1038C1196.7 1038 1224.3 1038 1252.2 1038C1280 1038 1308 1038 1335.8 1038C1363.7 1038 1391.3 1038 1419.2 1038C1447 1038 1475 1038 1502.8 1038C1530.7 1038 1558.3 1038 1586.2 1038C1614 1038 1642 1038 1669.8 1038C1697.7 1038 1725.3 1038 1753.2 1038C1781 1038 1809 1038 1836.8 1038C1864.7 1038 1892.3 1038 1906.2 1038L1920 1038L1920 993L1906.2 993C1892.3 993 1864.7 993 1836.8 993C1809 993 1781 993 1753.2 993C1725.3 993 1697.7 993 1669.8 993C1642 993 1614 993 1586.2 993C1558.3 993 1530.7 993 1502.8 993C1475 993 1447 993 1419.2 993C1391.3 993 1363.7 993 1335.8 993C1308 993 1280 993 1252.2 993C1224.3 993 1196.7 993 1168.8 993C1141 993 1113 993 1085.2 993C1057.3 993 1029.7 993 1001.8 993C974 993 946 993 918.2 993C890.3 993 862.7 993 834.8 993C807 993 779 993 751.2 993C723.3 993 695.7 993 667.8 993C640 993 612 993 584.2 993C556.3 993 528.7 993 500.8 993C473 993 445 993 417.2 993C389.3 993 361.7 993 333.8 993C306 993 278 993 250.2 993C222.3 993 194.7 993 166.8 993C139 993 111 993 83.2 993C55.3 993 27.7 993 13.8 993L0 993Z" fill="#3f82ff"></path><path d="M0 1081L13.8 1081C27.7 1081 55.3 1081 83.2 1081C111 1081 139 1081 166.8 1081C194.7 1081 222.3 1081 250.2 1081C278 1081 306 1081 333.8 1081C361.7 1081 389.3 1081 417.2 1081C445 1081 473 1081 500.8 1081C528.7 1081 556.3 1081 584.2 1081C612 1081 640 1081 667.8 1081C695.7 1081 723.3 1081 751.2 1081C779 1081 807 1081 834.8 1081C862.7 1081 890.3 1081 918.2 1081C946 1081 974 1081 1001.8 1081C1029.7 1081 1057.3 1081 1085.2 1081C1113 1081 1141 1081 1168.8 1081C1196.7 1081 1224.3 1081 1252.2 1081C1280 1081 1308 1081 1335.8 1081C1363.7 1081 1391.3 1081 1419.2 1081C1447 1081 1475 1081 1502.8 1081C1530.7 1081 1558.3 1081 1586.2 1081C1614 1081 1642 1081 1669.8 1081C1697.7 1081 1725.3 1081 1753.2 1081C1781 1081 1809 1081 1836.8 1081C1864.7 1081 1892.3 1081 1906.2 1081L1920 1081L1920 1036L1906.2 1036C1892.3 1036 1864.7 1036 1836.8 1036C1809 1036 1781 1036 1753.2 1036C1725.3 1036 1697.7 1036 1669.8 1036C1642 1036 1614 1036 1586.2 1036C1558.3 1036 1530.7 1036 1502.8 1036C1475 1036 1447 1036 1419.2 1036C1391.3 1036 1363.7 1036 1335.8 1036C1308 1036 1280 1036 1252.2 1036C1224.3 1036 1196.7 1036 1168.8 1036C1141 1036 1113 1036 1085.2 1036C1057.3 1036 1029.7 1036 1001.8 1036C974 1036 946 1036 918.2 1036C890.3 1036 862.7 1036 834.8 1036C807 1036 779 1036 751.2 1036C723.3 1036 695.7 1036 667.8 1036C640 1036 612 1036 584.2 1036C556.3 1036 528.7 1036 500.8 1036C473 1036 445 1036 417.2 1036C389.3 1036 361.7 1036 333.8 1036C306 1036 278 1036 250.2 1036C222.3 1036 194.7 1036 166.8 1036C139 1036 111 1036 83.2 1036C55.3 1036 27.7 1036 13.8 1036L0 1036Z" fill="#6198ff"></path></svg>