<svg id="visual" viewBox="0 0 960 540" width="960" height="540" xmlns="http://www.w3.org/2000/svg" xmlns:xlink="http://www.w3.org/1999/xlink" version="1.1"><path d="M0 23L7 23C14 23 28 23 41.8 23C55.7 23 69.3 23 83.2 23C97 23 111 23 125 23C139 23 153 23 167 23C181 23 195 23 208.8 23C222.7 23 236.3 23 250.2 23C264 23 278 23 292 23C306 23 320 23 334 23C348 23 362 23 375.8 23C389.7 23 403.3 23 417.2 23C431 23 445 23 459 23C473 23 487 23 501 23C515 23 529 23 542.8 23C556.7 23 570.3 23 584.2 23C598 23 612 23 626 23C640 23 654 23 668 23C682 23 696 23 709.8 23C723.7 23 737.3 23 751.2 23C765 23 779 23 793 23C807 23 821 23 835 23C849 23 863 23 876.8 23C890.7 23 904.3 23 918.2 23C932 23 946 23 953 23L960 23L960 0L953 0C946 0 932 0 918.2 0C904.3 0 890.7 0 876.8 0C863 0 849 0 835 0C821 0 807 0 793 0C779 0 765 0 751.2 0C737.3 0 723.7 0 709.8 0C696 0 682 0 668 0C654 0 640 0 626 0C612 0 598 0 584.2 0C570.3 0 556.7 0 542.8 0C529 0 515 0 501 0C487 0 473 0 459 0C445 0 431 0 417.2 0C403.3 0 389.7 0 375.8 0C362 0 348 0 334 0C320 0 306 0 292 0C278 0 264 0 250.2 0C236.3 0 222.7 0 208.8 0C195 0 181 0 167 0C153 0 139 0 125 0C111 0 97 0 83.2 0C69.3 0 55.7 0 41.8 0C28 0 14 0 7 0L0 0Z" fill="#6198ff"></path><path d="M0 55L7 55.8C14 56.7 28 58.3 41.8 59.2C55.7 60 69.3 60 83.2 59.2C97 58.3 111 56.7 125 55.8C139 55 153 55 167 55C181 55 195 55 208.8 55C222.7 55 236.3 55 250.2 55C264 55 278 55 292 55C306 55 320 55 334 55C348 55 362 55 375.8 55C389.7 55 403.3 55 417.2 55.8C431 56.7 445 58.3 459 59.2C473 60 487 60 501 59.2C515 58.3 529 56.7 542.8 55.8C556.7 55 570.3 55 584.2 55.8C598 56.7 612 58.3 626 59.2C640 60 654 60 668 60C682 60 696 60 709.8 59.2C723.7 58.3 737.3 56.7 751.2 56.7C765 56.7 779 58.3 793 58.3C807 58.3 821 56.7 835 55.8C849 55 863 55 876.8 55.8C890.7 56.7 904.3 58.3 918.2 58.3C932 58.3 946 56.7 953 55.8L960 55L960 21L953 21C946 21 932 21 918.2 21C904.3 21 890.7 21 876.8 21C863 21 849 21 835 21C821 21 807 21 793 21C779 21 765 21 751.2 21C737.3 21 723.7 21 709.8 21C696 21 682 21 668 21C654 21 640 21 626 21C612 21 598 21 584.2 21C570.3 21 556.7 21 542.8 21C529 21 515 21 501 21C487 21 473 21 459 21C445 21 431 21 417.2 21C403.3 21 389.7 21 375.8 21C362 21 348 21 334 21C320 21 306 21 292 21C278 21 264 21 250.2 21C236.3 21 222.7 21 208.8 21C195 21 181 21 167 21C153 21 139 21 125 21C111 21 97 21 83.2 21C69.3 21 55.7 21 41.8 21C28 21 14 21 7 21L0 21Z" fill="#3f82ff"></path><path d="M0 98L7 98C14 98 28 98 41.8 98C55.7 98 69.3 98 83.2 97.2C97 96.3 111 94.7 125 94.7C139 94.7 153 96.3 167 97.2C181 98 195 98 208.8 97.2C222.7 96.3 236.3 94.7 250.2 93.8C264 93 278 93 292 93C306 93 320 93 334 93.8C348 94.7 362 96.3 375.8 97.2C389.7 98 403.3 98 417.2 99C431 100 445 102 459 103C473 104 487 104 501 103C515 102 529 100 542.8 99C556.7 98 570.3 98 584.2 98C598 98 612 98 626 98C640 98 654 98 668 99C682 100 696 102 709.8 102C723.7 102 737.3 100 751.2 100C765 100 779 102 793 102C807 102 821 100 835 98.2C849 96.3 863 94.7 876.8 95.7C890.7 96.7 904.3 100.3 918.2 101.2C932 102 946 100 953 99L960 98L960 53L953 53.8C946 54.7 932 56.3 918.2 56.3C904.3 56.3 890.7 54.7 876.8 53.8C863 53 849 53 835 53.8C821 54.7 807 56.3 793 56.3C779 56.3 765 54.7 751.2 54.7C737.3 54.7 723.7 56.3 709.8 57.2C696 58 682 58 668 58C654 58 640 58 626 57.2C612 56.3 598 54.7 584.2 53.8C570.3 53 556.7 53 542.8 53.8C529 54.7 515 56.3 501 57.2C487 58 473 58 459 57.2C445 56.3 431 54.7 417.2 53.8C403.3 53 389.7 53 375.8 53C362 53 348 53 334 53C320 53 306 53 292 53C278 53 264 53 250.2 53C236.3 53 222.7 53 208.8 53C195 53 181 53 167 53C153 53 139 53 125 53.8C111 54.7 97 56.3 83.2 57.2C69.3 58 55.7 58 41.8 57.2C28 56.3 14 54.7 7 53.8L0 53Z" fill="#126bff"></path><path d="M0 195L7 196.8C14 198.7 28 202.3 41.8 203.3C55.7 204.3 69.3 202.7 83.2 201.8C97 201 111 201 125 201C139 201 153 201 167 201C181 201 195 201 208.8 201C222.7 201 236.3 201 250.2 201C264 201 278 201 292 201C306 201 320 201 334 202.8C348 204.7 362 208.3 375.8 210.2C389.7 212 403.3 212 417.2 212C431 212 445 212 459 211C473 210 487 208 501 208.8C515 209.7 529 213.3 542.8 215.2C556.7 217 570.3 217 584.2 215.2C598 213.3 612 209.7 626 209.7C640 209.7 654 213.3 668 215.2C682 217 696 217 709.8 216.2C723.7 215.3 737.3 213.7 751.2 212.8C765 212 779 212 793 211C807 210 821 208 835 207C849 206 863 206 876.8 206C890.7 206 904.3 206 918.2 205.2C932 204.3 946 202.7 953 201.8L960 201L960 96L953 97C946 98 932 100 918.2 99.2C904.3 98.3 890.7 94.7 876.8 93.7C863 92.7 849 94.3 835 96.2C821 98 807 100 793 100C779 100 765 98 751.2 98C737.3 98 723.7 100 709.8 100C696 100 682 98 668 97C654 96 640 96 626 96C612 96 598 96 584.2 96C570.3 96 556.7 96 542.8 97C529 98 515 100 501 101C487 102 473 102 459 101C445 100 431 98 417.2 97C403.3 96 389.7 96 375.8 95.2C362 94.3 348 92.7 334 91.8C320 91 306 91 292 91C278 91 264 91 250.2 91.8C236.3 92.7 222.7 94.3 208.8 95.2C195 96 181 96 167 95.2C153 94.3 139 92.7 125 92.7C111 92.7 97 94.3 83.2 95.2C69.3 96 55.7 96 41.8 96C28 96 14 96 7 96L0 96Z" fill="#005ce6"></path><path d="M0 217L7 218.8C14 220.7 28 224.3 41.8 225.2C55.7 226 69.3 224 83.2 223C97 222 111 222 125 222C139 222 153 222 167 222C181 222 195 222 208.8 222C222.7 222 236.3 222 250.2 222C264 222 278 222 292 222C306 222 320 222 334 223.8C348 225.7 362 229.3 375.8 231.2C389.7 233 403.3 233 417.2 233C431 233 445 233 459 232.2C473 231.3 487 229.7 501 230.7C515 231.7 529 235.3 542.8 237.2C556.7 239 570.3 239 584.2 237.2C598 235.3 612 231.7 626 231.7C640 231.7 654 235.3 668 237.2C682 239 696 239 709.8 238C723.7 237 737.3 235 751.2 234C765 233 779 233 793 232.2C807 231.3 821 229.7 835 228.8C849 228 863 228 876.8 228C890.7 228 904.3 228 918.2 227C932 226 946 224 953 223L960 222L960 199L953 199.8C946 200.7 932 202.3 918.2 203.2C904.3 204 890.7 204 876.8 204C863 204 849 204 835 205C821 206 807 208 793 209C779 210 765 210 751.2 210.8C737.3 211.7 723.7 213.3 709.8 214.2C696 215 682 215 668 213.2C654 211.3 640 207.7 626 207.7C612 207.7 598 211.3 584.2 213.2C570.3 215 556.7 215 542.8 213.2C529 211.3 515 207.7 501 206.8C487 206 473 208 459 209C445 210 431 210 417.2 210C403.3 210 389.7 210 375.8 208.2C362 206.3 348 202.7 334 200.8C320 199 306 199 292 199C278 199 264 199 250.2 199C236.3 199 222.7 199 208.8 199C195 199 181 199 167 199C153 199 139 199 125 199C111 199 97 199 83.2 199.8C69.3 200.7 55.7 202.3 41.8 201.3C28 200.3 14 196.7 7 194.8L0 193Z" fill="#0051c7"></path><path d="M0 320L7 320.8C14 321.7 28 323.3 41.8 324.2C55.7 325 69.3 325 83.2 325C97 325 111 325 125 326.8C139 328.7 153 332.3 167 334.2C181 336 195 336 208.8 333.3C222.7 330.7 236.3 325.3 250.2 323.5C264 321.7 278 323.3 292 323.3C306 323.3 320 321.7 334 321.7C348 321.7 362 323.3 375.8 324.2C389.7 325 403.3 325 417.2 325.8C431 326.7 445 328.3 459 328.3C473 328.3 487 326.7 501 326.7C515 326.7 529 328.3 542.8 329.2C556.7 330 570.3 330 584.2 330C598 330 612 330 626 330C640 330 654 330 668 330C682 330 696 330 709.8 329.2C723.7 328.3 737.3 326.7 751.2 325.8C765 325 779 325 793 325.8C807 326.7 821 328.3 835 328.3C849 328.3 863 326.7 876.8 326.7C890.7 326.7 904.3 328.3 918.2 328.3C932 328.3 946 326.7 953 325.8L960 325L960 220L953 221C946 222 932 224 918.2 225C904.3 226 890.7 226 876.8 226C863 226 849 226 835 226.8C821 227.7 807 229.3 793 230.2C779 231 765 231 751.2 232C737.3 233 723.7 235 709.8 236C696 237 682 237 668 235.2C654 233.3 640 229.7 626 229.7C612 229.7 598 233.3 584.2 235.2C570.3 237 556.7 237 542.8 235.2C529 233.3 515 229.7 501 228.7C487 227.7 473 229.3 459 230.2C445 231 431 231 417.2 231C403.3 231 389.7 231 375.8 229.2C362 227.3 348 223.7 334 221.8C320 220 306 220 292 220C278 220 264 220 250.2 220C236.3 220 222.7 220 208.8 220C195 220 181 220 167 220C153 220 139 220 125 220C111 220 97 220 83.2 221C69.3 222 55.7 224 41.8 223.2C28 222.3 14 218.7 7 216.8L0 215Z" fill="#004cbb"></path><path d="M0 347L7 347.8C14 348.7 28 350.3 41.8 351.2C55.7 352 69.3 352 83.2 352C97 352 111 352 125 353.8C139 355.7 153 359.3 167 361.2C181 363 195 363 208.8 360.3C222.7 357.7 236.3 352.3 250.2 350.5C264 348.7 278 350.3 292 350.3C306 350.3 320 348.7 334 348.7C348 348.7 362 350.3 375.8 351.2C389.7 352 403.3 352 417.2 352.8C431 353.7 445 355.3 459 355.3C473 355.3 487 353.7 501 353.7C515 353.7 529 355.3 542.8 356.2C556.7 357 570.3 357 584.2 357C598 357 612 357 626 357C640 357 654 357 668 357C682 357 696 357 709.8 356.2C723.7 355.3 737.3 353.7 751.2 352.8C765 352 779 352 793 352.8C807 353.7 821 355.3 835 355.3C849 355.3 863 353.7 876.8 353.7C890.7 353.7 904.3 355.3 918.2 355.3C932 355.3 946 353.7 953 352.8L960 352L960 323L953 323.8C946 324.7 932 326.3 918.2 326.3C904.3 326.3 890.7 324.7 876.8 324.7C863 324.7 849 326.3 835 326.3C821 326.3 807 324.7 793 323.8C779 323 765 323 751.2 323.8C737.3 324.7 723.7 326.3 709.8 327.2C696 328 682 328 668 328C654 328 640 328 626 328C612 328 598 328 584.2 328C570.3 328 556.7 328 542.8 327.2C529 326.3 515 324.7 501 324.7C487 324.7 473 326.3 459 326.3C445 326.3 431 324.7 417.2 323.8C403.3 323 389.7 323 375.8 322.2C362 321.3 348 319.7 334 319.7C320 319.7 306 321.3 292 321.3C278 321.3 264 319.7 250.2 321.5C236.3 323.3 222.7 328.7 208.8 331.3C195 334 181 334 167 332.2C153 330.3 139 326.7 125 324.8C111 323 97 323 83.2 323C69.3 323 55.7 323 41.8 322.2C28 321.3 14 319.7 7 318.8L0 318Z" fill="#004cbb"></path><path d="M0 395L7 396C14 397 28 399 41.8 400C55.7 401 69.3 401 83.2 401C97 401 111 401 125 401.8C139 402.7 153 404.3 167 406C181 407.7 195 409.3 208.8 407.5C222.7 405.7 236.3 400.3 250.2 397.7C264 395 278 395 292 395C306 395 320 395 334 395C348 395 362 395 375.8 396C389.7 397 403.3 399 417.2 400C431 401 445 401 459 401C473 401 487 401 501 401C515 401 529 401 542.8 401C556.7 401 570.3 401 584.2 402.7C598 404.3 612 407.7 626 408.5C640 409.3 654 407.7 668 406C682 404.3 696 402.7 709.8 400.8C723.7 399 737.3 397 751.2 397C765 397 779 399 793 400C807 401 821 401 835 400C849 399 863 397 876.8 397C890.7 397 904.3 399 918.2 400.8C932 402.7 946 404.3 953 405.2L960 406L960 350L953 350.8C946 351.7 932 353.3 918.2 353.3C904.3 353.3 890.7 351.7 876.8 351.7C863 351.7 849 353.3 835 353.3C821 353.3 807 351.7 793 350.8C779 350 765 350 751.2 350.8C737.3 351.7 723.7 353.3 709.8 354.2C696 355 682 355 668 355C654 355 640 355 626 355C612 355 598 355 584.2 355C570.3 355 556.7 355 542.8 354.2C529 353.3 515 351.7 501 351.7C487 351.7 473 353.3 459 353.3C445 353.3 431 351.7 417.2 350.8C403.3 350 389.7 350 375.8 349.2C362 348.3 348 346.7 334 346.7C320 346.7 306 348.3 292 348.3C278 348.3 264 346.7 250.2 348.5C236.3 350.3 222.7 355.7 208.8 358.3C195 361 181 361 167 359.2C153 357.3 139 353.7 125 351.8C111 350 97 350 83.2 350C69.3 350 55.7 350 41.8 349.2C28 348.3 14 346.7 7 345.8L0 345Z" fill="#0051c7"></path><path d="M0 422L7 422C14 422 28 422 41.8 422C55.7 422 69.3 422 83.2 422C97 422 111 422 125 423C139 424 153 426 167 427.8C181 429.7 195 431.3 208.8 430.3C222.7 429.3 236.3 425.7 250.2 423.8C264 422 278 422 292 421.2C306 420.3 320 418.7 334 418.7C348 418.7 362 420.3 375.8 421.2C389.7 422 403.3 422 417.2 422C431 422 445 422 459 422C473 422 487 422 501 423C515 424 529 426 542.8 427C556.7 428 570.3 428 584.2 428.8C598 429.7 612 431.3 626 431.3C640 431.3 654 429.7 668 427.8C682 426 696 424 709.8 423C723.7 422 737.3 422 751.2 423C765 424 779 426 793 427C807 428 821 428 835 427C849 426 863 424 876.8 423C890.7 422 904.3 422 918.2 423C932 424 946 426 953 427L960 428L960 404L953 403.2C946 402.3 932 400.7 918.2 398.8C904.3 397 890.7 395 876.8 395C863 395 849 397 835 398C821 399 807 399 793 398C779 397 765 395 751.2 395C737.3 395 723.7 397 709.8 398.8C696 400.7 682 402.3 668 404C654 405.7 640 407.3 626 406.5C612 405.7 598 402.3 584.2 400.7C570.3 399 556.7 399 542.8 399C529 399 515 399 501 399C487 399 473 399 459 399C445 399 431 399 417.2 398C403.3 397 389.7 395 375.8 394C362 393 348 393 334 393C320 393 306 393 292 393C278 393 264 393 250.2 395.7C236.3 398.3 222.7 403.7 208.8 405.5C195 407.3 181 405.7 167 404C153 402.3 139 400.7 125 399.8C111 399 97 399 83.2 399C69.3 399 55.7 399 41.8 398C28 397 14 395 7 394L0 393Z" fill="#005ce6"></path><path d="M0 444L7 444C14 444 28 444 41.8 444C55.7 444 69.3 444 83.2 444C97 444 111 444 125 444.8C139 445.7 153 447.3 167 449.2C181 451 195 453 208.8 452.2C222.7 451.3 236.3 447.7 250.2 445.8C264 444 278 444 292 443C306 442 320 440 334 440C348 440 362 442 375.8 443C389.7 444 403.3 444 417.2 444C431 444 445 444 459 444C473 444 487 444 501 444.8C515 445.7 529 447.3 542.8 448.2C556.7 449 570.3 449 584.2 450C598 451 612 453 626 453C640 453 654 451 668 449.2C682 447.3 696 445.7 709.8 444.8C723.7 444 737.3 444 751.2 444.8C765 445.7 779 447.3 793 448.2C807 449 821 449 835 448.2C849 447.3 863 445.7 876.8 444.8C890.7 444 904.3 444 918.2 444.8C932 445.7 946 447.3 953 448.2L960 449L960 426L953 425C946 424 932 422 918.2 421C904.3 420 890.7 420 876.8 421C863 422 849 424 835 425C821 426 807 426 793 425C779 424 765 422 751.2 421C737.3 420 723.7 420 709.8 421C696 422 682 424 668 425.8C654 427.7 640 429.3 626 429.3C612 429.3 598 427.7 584.2 426.8C570.3 426 556.7 426 542.8 425C529 424 515 422 501 421C487 420 473 420 459 420C445 420 431 420 417.2 420C403.3 420 389.7 420 375.8 419.2C362 418.3 348 416.7 334 416.7C320 416.7 306 418.3 292 419.2C278 420 264 420 250.2 421.8C236.3 423.7 222.7 427.3 208.8 428.3C195 429.3 181 427.7 167 425.8C153 424 139 422 125 421C111 420 97 420 83.2 420C69.3 420 55.7 420 41.8 420C28 420 14 420 7 420L0 420Z" fill="#126bff"></path><path d="M0 509L7 509C14 509 28 509 41.8 509.8C55.7 510.7 69.3 512.3 83.2 513.2C97 514 111 514 125 513.2C139 512.3 153 510.7 167 510.7C181 510.7 195 512.3 208.8 512.3C222.7 512.3 236.3 510.7 250.2 509.8C264 509 278 509 292 509C306 509 320 509 334 509.8C348 510.7 362 512.3 375.8 512.3C389.7 512.3 403.3 510.7 417.2 509.8C431 509 445 509 459 509C473 509 487 509 501 509.8C515 510.7 529 512.3 542.8 512.3C556.7 512.3 570.3 510.7 584.2 510.7C598 510.7 612 512.3 626 513.2C640 514 654 514 668 513.2C682 512.3 696 510.7 709.8 509.8C723.7 509 737.3 509 751.2 509.8C765 510.7 779 512.3 793 512.3C807 512.3 821 510.7 835 509.8C849 509 863 509 876.8 509.8C890.7 510.7 904.3 512.3 918.2 513.2C932 514 946 514 953 514L960 514L960 447L953 446.2C946 445.3 932 443.7 918.2 442.8C904.3 442 890.7 442 876.8 442.8C863 443.7 849 445.3 835 446.2C821 447 807 447 793 446.2C779 445.3 765 443.7 751.2 442.8C737.3 442 723.7 442 709.8 442.8C696 443.7 682 445.3 668 447.2C654 449 640 451 626 451C612 451 598 449 584.2 448C570.3 447 556.7 447 542.8 446.2C529 445.3 515 443.7 501 442.8C487 442 473 442 459 442C445 442 431 442 417.2 442C403.3 442 389.7 442 375.8 441C362 440 348 438 334 438C320 438 306 440 292 441C278 442 264 442 250.2 443.8C236.3 445.7 222.7 449.3 208.8 450.2C195 451 181 449 167 447.2C153 445.3 139 443.7 125 442.8C111 442 97 442 83.2 442C69.3 442 55.7 442 41.8 442C28 442 14 442 7 442L0 442Z" fill="#3f82ff"></path><path d="M0 541L7 541C14 541 28 541 41.8 541C55.7 541 69.3 541 83.2 541C97 541 111 541 125 541C139 541 153 541 167 541C181 541 195 541 208.8 541C222.7 541 236.3 541 250.2 541C264 541 278 541 292 541C306 541 320 541 334 541C348 541 362 541 375.8 541C389.7 541 403.3 541 417.2 541C431 541 445 541 459 541C473 541 487 541 501 541C515 541 529 541 542.8 541C556.7 541 570.3 541 584.2 541C598 541 612 541 626 541C640 541 654 541 668 541C682 541 696 541 709.8 541C723.7 541 737.3 541 751.2 541C765 541 779 541 793 541C807 541 821 541 835 541C849 541 863 541 876.8 541C890.7 541 904.3 541 918.2 541C932 541 946 541 953 541L960 541L960 512L953 512C946 512 932 512 918.2 511.2C904.3 510.3 890.7 508.7 876.8 507.8C863 507 849 507 835 507.8C821 508.7 807 510.3 793 510.3C779 510.3 765 508.7 751.2 507.8C737.3 507 723.7 507 709.8 507.8C696 508.7 682 510.3 668 511.2C654 512 640 512 626 511.2C612 510.3 598 508.7 584.2 508.7C570.3 508.7 556.7 510.3 542.8 510.3C529 510.3 515 508.7 501 507.8C487 507 473 507 459 507C445 507 431 507 417.2 507.8C403.3 508.7 389.7 510.3 375.8 510.3C362 510.3 348 508.7 334 507.8C320 507 306 507 292 507C278 507 264 507 250.2 507.8C236.3 508.7 222.7 510.3 208.8 510.3C195 510.3 181 508.7 167 508.7C153 508.7 139 510.3 125 511.2C111 512 97 512 83.2 511.2C69.3 510.3 55.7 508.7 41.8 507.8C28 507 14 507 7 507L0 507Z" fill="#6198ff"></path></svg>